<svg id="Layer_1" data-name="Layer 1" xmlns="http://www.w3.org/2000/svg" xmlns:xlink="http://www.w3.org/1999/xlink" viewBox="0 0 143.31567 119.55408">
  <defs>
    <radialGradient id="radial-gradient" cx="79.65691" cy="61.75414" r="86.16414" gradientUnits="userSpaceOnUse">
      <stop offset="0" stop-color="#f15a22"/>
      <stop offset="1" stop-color="#7e499d"/>
    </radialGradient>
    <radialGradient id="radial-gradient-2" cx="35.40473" cy="116.57334" r="106.83494" gradientUnits="userSpaceOnUse">
      <stop offset="0.05752" stop-color="#fff33e"/>
      <stop offset="1" stop-color="#ee3d85"/>
    </radialGradient>
    <radialGradient id="radial-gradient-3" cx="60.03307" cy="68.50534" r="50.86775" gradientUnits="userSpaceOnUse">
      <stop offset="0" stop-color="#f15a22"/>
      <stop offset="1" stop-color="#fff33e"/>
    </radialGradient>
  </defs>
  <title>logo-1</title>
  <g>
    <path d="M18.34875,2.73469a11.0673,11.0673,0,1,0-12.94159,17.845L76.94921,64.96234A4.27354,4.27354,0,0,0,81.9243,58.082Z" fill="url(#radial-gradient)"/>
    <path d="M133.08368,81.88284a15.625,15.625,0,1,0-13.21612-28.1904s-89.91758,51.1783-90.014,51.23847c-0.16072.10028-.31912,0.20659-0.47414,0.321a7.92618,7.92618,0,0,0,7.90673,13.62847C80.86828,101.54345,80.86828,101.54345,133.08368,81.88284Z" fill="url(#radial-gradient-2)"/>
    <path d="M65.3613,68.48682a4.27607,4.27607,0,0,0-7.317-4.418l-30.40176,42.943A7.92652,7.92652,0,1,0,41.18144,115.163Z" fill="url(#radial-gradient-3)"/>
    <rect x="45.71179" y="35.82817" width="51.25302" height="51.25303"/>
    <rect x="50.13267" y="77.47125" width="19.21988" height="3.20332" fill="#fff"/>
    <g>
      <path d="M52.85229,50.73162a3.14761,3.14761,0,0,0,2.29126-.84729,3.1033,3.1033,0,0,0,.82349-2.351V42.2348H53.66381v5.28668a0.97359,0.97359,0,0,1-.94281,1.16943,1.6911,1.6911,0,0,1-1.31274-.77563l-1.49164,1.4082A3.41138,3.41138,0,0,0,52.85229,50.73162Z" fill="#fff"/>
      <polygon points="63.282 48.619 58.795 48.619 58.795 47.295 62.805 47.295 62.805 45.469 58.795 45.469 58.795 44.192 63.222 44.192 63.222 42.235 56.504 42.235 56.504 50.588 63.282 50.588 63.282 48.619" fill="#fff"/>
      <polygon points="66.249 50.588 68.564 50.588 68.564 44.264 71.07 44.264 71.07 42.235 63.755 42.235 63.755 44.264 66.249 44.264 66.249 50.588" fill="#fff"/>
      <path d="M55.94311,56.52679A1.93356,1.93356,0,0,0,57.232,54.66516V54.64129a1.87991,1.87991,0,0,0-.537-1.36047,3.12856,3.12856,0,0,0-2.27936-.73993H50.1314v8.35364h4.30811c1.99286,0,3.16235-.87115,3.16235-2.30316V58.5675A2.02712,2.02712,0,0,0,55.94311,56.52679Zm-3.55627-2.12421h1.51563c0.68024,0,1.05017.25061,1.05017,0.71606v0.0238c0,0.48932-.40576.728-1.10986,0.728H52.38684V54.40258Zm2.8999,3.86652c0,0.48932-.3938.76379-1.1098,0.76379h-1.7901V57.4934h1.76624c0.7757,0,1.13367.2984,1.13367,0.75189v0.0238Z" fill="#fff"/>
      <path d="M68.06726,52.48126l-3.12134,7.4093-1.30573-1.90784a2.64656,2.64656,0,0,0,1.71838-2.5777V55.38116a2.60831,2.60831,0,0,0-.73981-1.94519,3.69838,3.69838,0,0,0-2.72089-.89508H57.94781v8.35364h2.31512V58.36462h1.02631l1.68262,2.52991,2.66119,0.00006V60.89453l1.31244,0.00006,0.59674-1.50366h3.234L71.373,60.89459h2.48224l-3.55634-8.41333H68.06726Zm-5.0238,3.07892a1.04922,1.04922,0,0,1-1.24109.99048H60.26293V54.53387H61.7904a1.04265,1.04265,0,0,1,1.25305,1.00244v0.02386Zm5.179,2.02875,0.94281-2.36285L70.096,57.58892h-1.8736Z" fill="#fff"/>
      <rect x="74.12933" y="52.54095" width="2.31512" height="8.35364" fill="#fff"/>
      <polygon points="82.614 56.956 79.177 52.541 77.017 52.541 77.017 60.895 79.308 60.895 79.308 56.312 82.889 60.895 84.905 60.895 84.905 52.541 82.614 52.541 82.614 56.956" fill="#fff"/>
      <path d="M89.23919,55.69146c-1.16956-.26251-1.45593-0.42963-1.45593-0.81152V54.85607c0-.31024.27448-0.537,0.83533-0.537a4.10035,4.10035,0,0,1,2.33905.82343l1.15753-1.63495a5.2577,5.2577,0,0,0-3.43689-1.10986c-2.00488,0-3.23407,1.12183-3.23407,2.67322v0.02386c0,1.70648,1.37238,2.20776,3.15057,2.61346,1.14557,0.27448,1.42.45349,1.42,0.81152v0.02386c0,0.358-.33417.57281-0.96661,0.57281a4.32765,4.32765,0,0,1-2.709-1.00244l-1.28876,1.53943a5.85673,5.85673,0,0,0,3.91418,1.38434c2.02875,0,3.37732-1.01434,3.37732-2.72089V58.293C92.342,56.72967,91.14856,56.10913,89.23919,55.69146Z" fill="#fff"/>
    </g>
  </g>
</svg>
